# xmcd
#
# Track frame offsets: 
#        150
#        16129
#        31316
#        47542
#        65192
#        81095
#        101653
#        116942
#        132320
#        149669
#        165947
#        185443
#
# Disc length: 2746 seconds
#
# Revision: 0
# Processed by: cddbd v1.5.2PL0 Copyright (c) Steve Scherf et al.
# Submitted via: ExactAudioCopy v1.3
#
DISCID=a50ab80c
DTITLE=Adam Hood - The Shape of Things
DYEAR=2013
DGENRE=Country
TTITLE0=Hell of a Fight 
TTITLE1=Flame and Gasoline
TTITLE2=Grandpa's Farm
TTITLE3=Tennesse Will
TTITLE4=The Shape of Things
TTITLE5=Gonna Take a Woman
TTITLE6=Front Porch Thang
TTITLE7=Moving Mountains
TTITLE8=Hard Times in the Land of Plenty
TTITLE9=New Deep Ellum Blues
TTITLE10=Once They're Gone
TTITLE11=I'll Sing About Mine
EXTD=
EXTT0=
EXTT1=
EXTT2=
EXTT3=
EXTT4=
EXTT5=
EXTT6=
EXTT7=
EXTT8=
EXTT9=
EXTT10=
EXTT11=
PLAYORDER=
